<?xml version="1.0" encoding="UTF-8"?>
<svg width="240px" height="240px" viewBox="0 0 240 240" version="1.1" xmlns="http://www.w3.org/2000/svg" xmlns:xlink="http://www.w3.org/1999/xlink">
    <title>飞吻</title>
    <defs>
        <linearGradient x1="47.5960831%" y1="0%" x2="49.0514485%" y2="100%" id="linearGradient-1">
            <stop stop-color="#FF0000" offset="0%"></stop>
            <stop stop-color="#FF7575" offset="18.4808206%"></stop>
            <stop stop-color="#FF3030" offset="59.1148635%"></stop>
            <stop stop-color="#FF5A5A" offset="68.4281861%"></stop>
            <stop stop-color="#FD3B3B" offset="71.6421855%"></stop>
            <stop stop-color="#FF5D5D" offset="77.8998165%"></stop>
            <stop stop-color="#E10202" offset="100%"></stop>
        </linearGradient>
        <path d="M98.4649759,193.014744 C101.748069,200.657432 96.3287605,205.438544 89.5247739,205.438544 C82.7207872,205.438544 83.9982395,200.099652 71.938055,205.438544 C66.6784433,207.766908 41.3999223,208.186953 36.2680079,199.423166 C33.874575,195.335893 37.595907,191.320546 43.2874562,193.161458 C48.9790054,195.00237 52.9256905,193.110681 52.1841969,191.30976 C50.753219,187.834237 41.4773733,193.199824 39.2217533,184.47444 C36.9661333,175.749056 43.5604308,158.534105 46.4182116,156.500528 C52.5369959,152.146444 36.4112891,150.602243 30.589458,149.344408 C5.31142679,143.773093 -6.23764629,120.232289 4.64910704,94.5215366 C8.97673101,84.383291 6.5680281,49.0008549 42.4088869,36.3262905 C47.0742872,34.7141599 51.3170901,33.6059596 51.3170901,27.1335891 C51.3170901,20.6612185 37.9112801,14.2509225 47.102046,14.5438515 C56.2928119,14.8367804 61.825077,16.2532387 67.3918072,20.1804982 C68.161822,12.1198996 52.5670091,1.12171961 58.3026341,0.953341346 C90.1873951,0.062576308 105.921154,33.4990569 108.557257,33.8576408 C150.506295,39.4436282 150.794443,83.6365328 153.348951,92.6461356 C163.711289,129.193495 148.137792,145.955349 119.411338,148.424177 C110.303106,149.215712 106.456142,151.911584 107.108143,152.777074 C108.339446,154.408297 95.1818829,185.372056 98.4649759,193.014744 Z" id="path-2"></path>
        <filter x="-5.8%" y="-4.4%" width="111.5%" height="108.7%" filterUnits="objectBoundingBox" id="filter-3">
            <feGaussianBlur stdDeviation="9" in="SourceAlpha" result="shadowBlurInner1"></feGaussianBlur>
            <feOffset dx="0" dy="0" in="shadowBlurInner1" result="shadowOffsetInner1"></feOffset>
            <feComposite in="shadowOffsetInner1" in2="SourceAlpha" operator="arithmetic" k2="-1" k3="1" result="shadowInnerInner1"></feComposite>
            <feColorMatrix values="0 0 0 0 0.613254677   0 0 0 0 0   0 0 0 0 0  0 0 0 0.401551178 0" type="matrix" in="shadowInnerInner1" result="shadowMatrixInner1"></feColorMatrix>
            <feGaussianBlur stdDeviation="4.5" in="SourceAlpha" result="shadowBlurInner2"></feGaussianBlur>
            <feOffset dx="0" dy="0" in="shadowBlurInner2" result="shadowOffsetInner2"></feOffset>
            <feComposite in="shadowOffsetInner2" in2="SourceAlpha" operator="arithmetic" k2="-1" k3="1" result="shadowInnerInner2"></feComposite>
            <feColorMatrix values="0 0 0 0 0   0 0 0 0 0   0 0 0 0 0  0 0 0 0.0389775815 0" type="matrix" in="shadowInnerInner2" result="shadowMatrixInner2"></feColorMatrix>
            <feMerge>
                <feMergeNode in="shadowMatrixInner1"></feMergeNode>
                <feMergeNode in="shadowMatrixInner2"></feMergeNode>
            </feMerge>
        </filter>
        <path d="M81.7154425,141.02532 C159.889692,140.561598 143.047086,118.961394 142.073985,93.4441014 C141.100884,67.9026192 110.545448,46.5084596 81.7154425,45.858626 C52.8854369,45.2087924 22.3300004,66.4222128 21.3568997,93.4398443 C21.0301845,102.516344 -2.89551863,142.972818 81.7154425,141.02532 Z" id="path-4"></path>
        <filter x="-2.4%" y="-3.1%" width="104.8%" height="106.3%" filterUnits="objectBoundingBox" id="filter-5">
            <feGaussianBlur stdDeviation="3" in="SourceAlpha" result="shadowBlurInner1"></feGaussianBlur>
            <feOffset dx="0" dy="0" in="shadowBlurInner1" result="shadowOffsetInner1"></feOffset>
            <feComposite in="shadowOffsetInner1" in2="SourceAlpha" operator="arithmetic" k2="-1" k3="1" result="shadowInnerInner1"></feComposite>
            <feColorMatrix values="0 0 0 0 1   0 0 0 0 0.255267519   0 0 0 0 0.255267519  0 0 0 1 0" type="matrix" in="shadowInnerInner1"></feColorMatrix>
        </filter>
        <linearGradient x1="100%" y1="50%" x2="0%" y2="50%" id="linearGradient-6">
            <stop stop-color="#FFFFFF" offset="0%"></stop>
            <stop stop-color="#FFFFFF" stop-opacity="0.294468976" offset="100%"></stop>
        </linearGradient>
        <linearGradient x1="50%" y1="0%" x2="50%" y2="100%" id="linearGradient-7">
            <stop stop-color="#FB6868" offset="0%"></stop>
            <stop stop-color="#CE1A1A" offset="100%"></stop>
        </linearGradient>
        <path d="M88.7613621,183.54653 C91.8096389,189.238219 105.495942,180.701066 107.503726,174.582428 C109.51151,168.46379 108.644193,153.032953 101.455504,153.314247 C94.2668147,153.595541 95.5469905,160.415441 95.5469905,167.763831 C95.5469905,175.11222 85.7130853,177.854841 88.7613621,183.54653 Z" id="path-8"></path>
        <filter x="-44.4%" y="-15.6%" width="169.1%" height="143.6%" filterUnits="objectBoundingBox" id="filter-9">
            <feOffset dx="-2" dy="2" in="SourceAlpha" result="shadowOffsetOuter1"></feOffset>
            <feGaussianBlur stdDeviation="2" in="shadowOffsetOuter1" result="shadowBlurOuter1"></feGaussianBlur>
            <feColorMatrix values="0 0 0 0 0   0 0 0 0 0   0 0 0 0 0  0 0 0 0.5 0" type="matrix" in="shadowBlurOuter1"></feColorMatrix>
        </filter>
        <linearGradient x1="50%" y1="0%" x2="35.0965379%" y2="100%" id="linearGradient-10">
            <stop stop-color="#EA4E4E" offset="0%"></stop>
            <stop stop-color="#E32B2B" offset="100%"></stop>
        </linearGradient>
        <path d="M47.9715661,186.745296 C51.5614344,192.988962 67.6794017,183.623882 70.0439118,176.911861 C72.4084219,170.199841 71.3870066,153.272531 62.9210933,153.581104 C54.45518,153.889678 55.9628065,161.370968 55.9628065,169.432 C55.9628065,177.493033 44.3816978,180.501631 47.9715661,186.745296 Z" id="path-11"></path>
        <filter x="-29.3%" y="-14.2%" width="158.7%" height="139.7%" filterUnits="objectBoundingBox" id="filter-12">
            <feOffset dx="0" dy="2" in="SourceAlpha" result="shadowOffsetOuter1"></feOffset>
            <feGaussianBlur stdDeviation="2" in="shadowOffsetOuter1" result="shadowBlurOuter1"></feGaussianBlur>
            <feColorMatrix values="0 0 0 0 0   0 0 0 0 0   0 0 0 0 0  0 0 0 0.5 0" type="matrix" in="shadowBlurOuter1"></feColorMatrix>
        </filter>
        <filter x="-101.1%" y="-93.0%" width="302.2%" height="286.0%" filterUnits="objectBoundingBox" id="filter-13">
            <feGaussianBlur stdDeviation="11.3597217" in="SourceGraphic"></feGaussianBlur>
        </filter>
        <filter x="-12.0%" y="-31.5%" width="124.0%" height="163.1%" filterUnits="objectBoundingBox" id="filter-14">
            <feGaussianBlur stdDeviation="4.35456" in="SourceGraphic"></feGaussianBlur>
        </filter>
        <path d="M20.7436586,43.0357858 C35.7844201,43.0357858 40.9885354,32.5379335 40.9885354,21.2490721 C40.9885354,9.96021065 32.2561328,0.699545375 20.7436586,0.808780294 C9.23118442,0.918015213 0.498781864,9.96021065 0.498781864,21.2490721 C0.498781864,32.5379335 5.70289717,43.0357858 20.7436586,43.0357858 Z" id="path-15"></path>
        <filter x="-2.5%" y="-2.4%" width="104.9%" height="104.7%" filterUnits="objectBoundingBox" id="filter-16">
            <feGaussianBlur stdDeviation="1" in="SourceAlpha" result="shadowBlurInner1"></feGaussianBlur>
            <feOffset dx="0" dy="0" in="shadowBlurInner1" result="shadowOffsetInner1"></feOffset>
            <feComposite in="shadowOffsetInner1" in2="SourceAlpha" operator="arithmetic" k2="-1" k3="1" result="shadowInnerInner1"></feComposite>
            <feColorMatrix values="0 0 0 0 0   0 0 0 0 0   0 0 0 0 0  0 0 0 0.430225317 0" type="matrix" in="shadowInnerInner1"></feColorMatrix>
        </filter>
        <path d="M20.8349965,42.6572523 C35.875758,42.6572523 41.0798733,32.1594001 41.0798733,20.8705387 C41.0798733,9.58167723 31.3876233,-0.164727005 20.8349965,0.430246874 C10.2823698,1.02522075 0.590119791,9.58167723 0.590119791,20.8705387 C0.590119791,32.1594001 5.7942351,42.6572523 20.8349965,42.6572523 Z" id="path-17"></path>
        <filter x="-2.5%" y="-2.4%" width="104.9%" height="104.7%" filterUnits="objectBoundingBox" id="filter-18">
            <feGaussianBlur stdDeviation="1" in="SourceAlpha" result="shadowBlurInner1"></feGaussianBlur>
            <feOffset dx="0" dy="0" in="shadowBlurInner1" result="shadowOffsetInner1"></feOffset>
            <feComposite in="shadowOffsetInner1" in2="SourceAlpha" operator="arithmetic" k2="-1" k3="1" result="shadowInnerInner1"></feComposite>
            <feColorMatrix values="0 0 0 0 0   0 0 0 0 0   0 0 0 0 0  0 0 0 0.430225317 0" type="matrix" in="shadowInnerInner1"></feColorMatrix>
        </filter>
        <linearGradient x1="12.2249914%" y1="46.5403939%" x2="93.9904237%" y2="55.0121936%" id="linearGradient-19">
            <stop stop-color="#FFD53A" offset="0%"></stop>
            <stop stop-color="#FFC28E" offset="100%"></stop>
        </linearGradient>
        <linearGradient x1="12.2249914%" y1="45.3340422%" x2="91.372011%" y2="54.866948%" id="linearGradient-20">
            <stop stop-color="#FFD53A" offset="0%"></stop>
            <stop stop-color="#FFC18C" offset="100%"></stop>
        </linearGradient>
        <path d="M5.11623581,8.11654776 C5.76821553,9.7196936 7.20214105,10.585635 8.29947466,10.9924187 C9.43585902,11.390318 9.87232973,11.8621424 10.1830886,11.7220209 C10.4938475,11.583125 11.185898,10.5063871 11.6122259,9.33394022 C12.0255822,8.22345346 12.4068782,7.0049153 11.7569046,5.56743384 C11.278573,4.4857605 9.36425853,3.36664215 7.67367471,4.01813825 C5.98223424,4.71270506 4.63465192,6.90831763 5.11623581,8.11654776 Z" id="path-21"></path>
        <filter x="-42.3%" y="-37.9%" width="184.6%" height="175.7%" filterUnits="objectBoundingBox" id="filter-22">
            <feGaussianBlur stdDeviation="2" in="SourceAlpha" result="shadowBlurInner1"></feGaussianBlur>
            <feOffset dx="0" dy="2" in="shadowBlurInner1" result="shadowOffsetInner1"></feOffset>
            <feComposite in="shadowOffsetInner1" in2="SourceAlpha" operator="arithmetic" k2="-1" k3="1" result="shadowInnerInner1"></feComposite>
            <feColorMatrix values="0 0 0 0 0.231930272   0 0 0 0 0   0 0 0 0 0  0 0 0 0.568274457 0" type="matrix" in="shadowInnerInner1" result="shadowMatrixInner1"></feColorMatrix>
            <feGaussianBlur stdDeviation="1" in="SourceAlpha" result="shadowBlurInner2"></feGaussianBlur>
            <feOffset dx="0" dy="-2" in="shadowBlurInner2" result="shadowOffsetInner2"></feOffset>
            <feComposite in="shadowOffsetInner2" in2="SourceAlpha" operator="arithmetic" k2="-1" k3="1" result="shadowInnerInner2"></feComposite>
            <feColorMatrix values="0 0 0 0 1   0 0 0 0 1   0 0 0 0 1  0 0 0 0.32274683 0" type="matrix" in="shadowInnerInner2" result="shadowMatrixInner2"></feColorMatrix>
            <feMerge>
                <feMergeNode in="shadowMatrixInner1"></feMergeNode>
                <feMergeNode in="shadowMatrixInner2"></feMergeNode>
            </feMerge>
        </filter>
    </defs>
    <g id="飞吻" stroke="none" stroke-width="1" fill="none" fill-rule="evenodd">
        <g id="分组-3" transform="translate(8.000000, 16.000000)">
            <g id="分组-2">
                <path d="M46.7025308,147.965079 C82.075841,143.465585 75.8025331,151.157499 87.107287,144.896699 C93.9981587,142.986991 98.6945408,143.965877 101.196433,147.833356 C93.3741456,152.8352 89.8257294,157.526778 90.5511844,161.908089 C91.639367,168.480055 92.7278392,180.365532 83.1256287,182.019985 C73.5234182,183.674438 59.5281637,189.281768 47.8589222,195.505145 C36.1896807,201.728522 2.96288695,209.811415 0.851563171,206.515993 C-1.25976061,203.220572 16.0792859,193.664234 11.3292206,184.977215 C6.57915537,176.290197 4.51652036,176.041689 11.3292206,167.058813 C15.5751242,161.460382 24.6920774,160.529613 31.8638499,157.003304 C36.1994365,154.871526 33.375055,149.660337 46.7025308,147.965079 Z" id="风衣" fill="#FFC901"></path>
                <g id="身体" transform="translate(18.014325, 0.502776)">
                    <g id="路径">
                        <use fill="url(#linearGradient-1)" fill-rule="evenodd" xlink:href="#path-2"></use>
                        <use fill="black" fill-opacity="1" filter="url(#filter-3)" xlink:href="#path-2"></use>
                    </g>
                    <g id="椭圆形" transform="translate(81.122116, 93.468705) rotate(-3.000000) translate(-81.122116, -93.468705) ">
                        <use fill="#FFFFC7" fill-rule="evenodd" xlink:href="#path-4"></use>
                        <use fill="black" fill-opacity="1" filter="url(#filter-5)" xlink:href="#path-4"></use>
                    </g>
                    <ellipse id="椭圆形-copy-135" fill="url(#linearGradient-6)" opacity="0.592331659" transform="translate(41.977727, 45.279402) rotate(-28.000000) translate(-41.977727, -45.279402) " cx="41.9777269" cy="45.2794024" rx="5.67051624" ry="2.98187032"></ellipse>
                    <g id="椭圆形-copy" transform="translate(98.308392, 169.364365) rotate(14.000000) translate(-98.308392, -169.364365) ">
                        <use fill="black" fill-opacity="1" filter="url(#filter-9)" xlink:href="#path-8"></use>
                        <use fill="url(#linearGradient-7)" fill-rule="evenodd" xlink:href="#path-8"></use>
                    </g>
                    <g id="椭圆形-copy-2" transform="translate(59.214830, 171.187754) scale(-1, 1) rotate(20.000000) translate(-59.214830, -171.187754) ">
                        <use fill="black" fill-opacity="1" filter="url(#filter-12)" xlink:href="#path-11"></use>
                        <use fill="url(#linearGradient-10)" fill-rule="evenodd" xlink:href="#path-11"></use>
                    </g>
                    <ellipse id="椭圆形-copy-4" fill="#FFFFFF" opacity="0.736165365" filter="url(#filter-13)" transform="translate(78.376037, 171.576951) rotate(7.000000) translate(-78.376037, -171.576951) " cx="78.3760374" cy="171.576951" rx="16.8527099" ry="18.3238162"></ellipse>
                    <path d="M47.5402987,87.9837274 C48.7144387,88.4500477 49.9941981,88.878099 51.3679299,89.2645871 C51.8147399,89.4719482 52.2520547,89.696984 52.67891,89.9388575 C52.6775122,89.8301296 52.6767834,89.7215313 52.67672,89.6130668 C59.7684699,91.3986284 69.0790076,92.1383232 79.190923,91.4312292 C89.3028383,90.7241352 98.4198209,88.6958626 105.194052,85.9406972 C105.209085,86.048115 105.223477,86.1557578 105.237225,86.2636221 C105.626264,85.9646957 106.028004,85.6809875 106.441606,85.4134605 C107.74818,84.8395472 108.955912,84.2375535 110.053726,83.6123627 C111.624512,83.0376463 113.301568,82.6712501 115.053954,82.5487113 C125.079753,81.8476392 133.774709,89.3940972 134.474684,99.4041971 C135.174658,109.414297 127.614584,118.097417 117.588786,118.79849 C113.032299,119.11711 108.750695,117.732214 105.369547,115.186744 C103.876009,112.142322 101.81554,109.440044 99.3343875,107.20684 C99.2699474,107.03956 99.2078957,106.871031 99.1482767,106.701294 C99.0929939,106.766076 99.0373991,106.830592 98.9814946,106.894839 C93.8848631,102.468771 87.0961488,99.9851997 79.8246308,100.493674 C72.5531128,101.002148 66.1761122,104.406355 61.7450704,109.498664 C61.6807684,109.442822 61.6167359,109.386671 61.552975,109.330213 C61.5175592,109.506597 61.479566,109.682121 61.439034,109.856742 C59.2928294,112.413522 57.6284971,115.376263 56.5731959,118.598918 C53.5792145,121.59018 49.5320193,123.557482 44.9755319,123.876103 C34.9497338,124.577175 26.2547771,117.030717 25.5548028,107.020617 C24.8548284,97.0105173 32.4149023,88.3273968 42.4407005,87.6263246 C44.1930867,87.5037859 45.9048147,87.6332152 47.5402987,87.9837274 L47.5402987,87.9837274 Z" id="路径" fill="#FA9090" opacity="0.559547061" filter="url(#filter-14)"></path>
                </g>
                <g id="左眼" transform="translate(53.086598, 66.889578)">
                    <g id="椭圆形-copy-39">
                        <use fill="#FCFFFE" fill-rule="evenodd" xlink:href="#path-15"></use>
                        <use fill="black" fill-opacity="1" filter="url(#filter-16)" xlink:href="#path-15"></use>
                    </g>
                </g>
                <g id="右眼" transform="translate(109.452751, 65.636997)">
                    <g id="椭圆形-copy-128">
                        <use fill="#FCFFFE" fill-rule="evenodd" xlink:href="#path-17"></use>
                        <use fill="black" fill-opacity="1" filter="url(#filter-18)" xlink:href="#path-17"></use>
                    </g>
                </g>
                <g id="围巾" transform="translate(58.096922, 147.054774)">
                    <path d="M6.73582244,4.23273779 C8.91604984,4.03420034 16.9155937,2.45642493 26.8559933,5.74833614 C36.796393,9.04024735 38.0321436,11.5750756 39.7600159,13.648134 C41.3000477,15.495826 39.8973664,16.0993056 38.5990901,15.8754208 C33.3676173,14.9732654 33.3678714,13.7977207 23.8894596,15.8785952 C15.7167929,17.6728087 7.2116717,12.0205925 4.50823178,8.62334416 C3.97983835,7.95934431 2.75238652,7.82869205 0.825876303,8.23138737 C2.7277634,5.75121383 4.69774545,4.41833063 6.73582244,4.23273779 Z" id="路径-6" fill="url(#linearGradient-19)" transform="translate(20.630270, 9.951847) rotate(8.000000) translate(-20.630270, -9.951847) "></path>
                    <path d="M44.3821351,4.37026098 C46.2150622,4.22758976 53.1024787,2.90316561 61.3164162,6.0485964 C69.5303537,9.1940272 69.4995337,10.5598272 70.6457483,12.8990189 C71.2458298,14.1236635 71.0980646,15.0994235 70.0252746,14.885501 C65.7024112,14.0234888 65.7026212,12.9002524 57.8704329,14.8885341 C51.117206,16.6029103 43.7297102,13.379378 41.4958074,10.1332973 C41.0591861,9.49884349 40.5651943,8.72964791 40.0138321,7.82571056 C40.1027372,5.74183704 41.5588382,4.59002051 44.3821351,4.37026098 Z" id="路径-6-copy" fill="url(#linearGradient-20)" transform="translate(55.505009, 9.668706) scale(-1, 1) rotate(8.000000) translate(-55.505009, -9.668706) "></path>
                </g>
                <path d="M98.5127761,186.05833 C91.3370529,186.822898 85.5199799,181.273745 85.5199799,173.663952 C85.5199799,166.054158 91.3370529,159.754665 98.5127761,159.593639 C105.688499,159.432613 111.505572,164.981765 111.505572,171.988017 C111.505572,178.994269 105.688499,185.293763 98.5127761,186.05833 Z M99.4385574,167.173533 C98.9373372,166.682455 98.1332104,166.718665 97.6319902,167.257841 L93.1076125,172.199116 C93.1026533,172.204605 93.0977337,172.210135 93.0928543,172.215705 C92.5939845,172.785987 92.600592,173.653389 93.1076125,174.150061 L97.6319915,178.50774 C98.1332117,178.982264 98.9373385,178.914751 99.4385586,178.35902 L103.962936,173.416866 C103.967896,173.411522 103.972815,173.40614 103.977695,173.40072 C104.476564,172.847448 104.469957,172.012196 103.962936,171.532091 L99.4385574,167.173533 Z" id="金币" stroke="#FFFFFF" stroke-width="1.16995415" fill="#FFD53A"></path>
            </g>
            <g id="分组-4" transform="translate(130.172696, 87.207906) scale(-1, 1) rotate(1.000000) translate(-130.172696, -87.207906) translate(118.172696, 77.207906)" fill="#333333">
                <path d="M5.66844698,0.328544998 L21.8443502,8.57057936 C23.1205937,9.22085791 23.6280386,10.7826126 22.97776,12.0588562 C22.3274815,13.3350997 20.7657268,13.8425445 19.4894832,13.192266 L3.31358002,4.95023163 C2.03733649,4.29995308 1.52989163,2.73819836 2.18017018,1.46195484 C2.83044874,0.185711312 4.39220345,-0.321733557 5.66844698,0.328544998 Z" id="矩形-copy-2"></path>
                <path d="M2.04631953,14.8727645 L19.2118695,8.96219164 C20.5661939,8.49586032 22.0421271,9.21572101 22.5084584,10.5700455 C22.9747897,11.92437 22.254929,13.4003032 20.9006046,13.8666345 L3.73505463,19.7772073 C2.38073014,20.2435386 0.904796984,19.5236779 0.438465664,18.1693534 C-0.0278656556,16.8150289 0.691995042,15.3390958 2.04631953,14.8727645 Z" id="矩形-copy-3"></path>
            </g>
            <g id="分组-4-copy" transform="translate(73.869472, 89.505913) rotate(-5.000000) translate(-73.869472, -89.505913) translate(61.869472, 79.005913)" fill="#333333">
                <path d="M5.76837716,0.334336983 L22.2294486,8.72167181 C23.5281913,9.38341426 24.044582,10.9727015 23.3828396,12.2714441 C22.7210971,13.5701868 21.1318099,14.0865775 19.8330672,13.4248351 L3.37199578,5.03750025 C2.07325311,4.37575781 1.55686239,2.7864706 2.21860484,1.48772793 C2.88034728,0.188985254 4.46963449,-0.327405462 5.76837716,0.334336983 Z" id="矩形-copy-2"></path>
                <path d="M2.08239451,15.1349594 L19.5505593,9.1201879 C20.9287595,8.64563554 22.4307122,9.3781868 22.9052645,10.7563869 C23.3798169,12.1345871 22.6472656,13.6365398 21.2690655,14.1110921 L3.80090065,20.1258636 C2.4227005,20.600416 0.920747831,19.8678647 0.446195463,18.4896646 C-0.0283569048,17.1114644 0.704194361,15.6095118 2.08239451,15.1349594 Z" id="矩形-copy-3"></path>
            </g>
            <g id="分组-5" opacity="0.982491629" transform="translate(65.000000, 105.500000) scale(-1, 1) translate(-65.000000, -105.500000) translate(58.000000, 100.000000)">
                <path d="M8.92256366,8.52701741 C5.29191893,10.941762 1.5545312,11.5465362 0.574874527,9.8778184 C-0.404782148,8.20910056 1.74426828,4.89880016 5.37491301,2.48405553 C9.00555773,0.0693108945 12.7429455,-0.535463312 13.7226021,1.13325453 C14.7022588,2.80197238 12.5532084,6.11227277 8.92256366,8.52701741 Z" id="椭圆形-copy-13" fill="#FD6464"></path>
                <path d="M10.2225664,7.15265976 C8.43709202,8.46902819 6.59912366,8.79871344 6.1173492,7.88903236 C5.63557474,6.97935129 6.69243235,5.17478161 8.47790675,3.85841318 C10.2633812,2.54204474 12.1013495,2.2123595 12.583124,3.12204057 C13.0648984,4.03172165 12.0080408,5.83629132 10.2225664,7.15265976 Z" id="椭圆形-copy-14" fill="#FFFFFF" opacity="0.442173549" transform="translate(9.350237, 5.505536) rotate(2.000000) translate(-9.350237, -5.505536) "></path>
            </g>
            <g id="分组-5-copy" opacity="0.982491629" transform="translate(142.536560, 101.201570) rotate(-6.000000) translate(-142.536560, -101.201570) translate(135.536560, 95.701570)">
                <path d="M8.92256366,8.52701741 C5.29191893,10.941762 1.5545312,11.5465362 0.574874527,9.8778184 C-0.404782148,8.20910056 1.74426828,4.89880016 5.37491301,2.48405553 C9.00555773,0.0693108945 12.7429455,-0.535463312 13.7226021,1.13325453 C14.7022588,2.80197238 12.5532084,6.11227277 8.92256366,8.52701741 Z" id="椭圆形-copy-13" fill="#FD6464"></path>
                <path d="M10.2225664,7.15265976 C8.43709202,8.46902819 6.59912366,8.79871344 6.1173492,7.88903236 C5.63557474,6.97935129 6.69243235,5.17478161 8.47790675,3.85841318 C10.2633812,2.54204474 12.1013495,2.2123595 12.583124,3.12204057 C13.0648984,4.03172165 12.0080408,5.83629132 10.2225664,7.15265976 Z" id="椭圆形-copy-14" fill="#FFFFFF" opacity="0.442173549" transform="translate(9.350237, 5.505536) rotate(2.000000) translate(-9.350237, -5.505536) "></path>
            </g>
            <g id="分组" transform="translate(130.279969, 113.985938) rotate(33.000000) translate(-130.279969, -113.985938) translate(113.779969, 98.485938)">
                <path d="M8.60571028,5.68042035 C11.3208105,4.57772764 14.4333378,5.23052568 16.4765882,7.331199 C18.5198386,5.23052568 21.6323659,4.57772764 24.3474661,5.68042035 C27.0625663,6.78311306 28.8384742,9.42128636 28.8384742,12.3517642 C28.8440475,14.6326158 27.7631119,16.779797 25.9276456,18.1338203 L17.7795287,24.8479609 C16.8436955,25.6193507 15.4865068,25.5980574 14.5753334,24.7976893 L6.63901646,17.8264219 C5.03563421,16.459883 4.11281446,14.4584819 4.11472078,12.3517642 C4.11472078,9.42128636 5.89061005,6.78311306 8.60571028,5.68042035 Z" id="路径" fill="#F70000" transform="translate(16.476598, 15.281765) rotate(32.000000) translate(-16.476598, -15.281765) "></path>
                <path d="M10.4220794,10.2495967 C12.1819762,9.53484391 14.1994806,9.95798009 15.523892,11.3196124 C16.8483035,9.95798009 18.8658079,9.53484391 20.6257047,10.2495967 C22.3856015,10.9643494 23.5367246,12.674383 23.5367246,14.5738851 C23.5403371,16.0523069 22.8396871,17.4440851 21.6499589,18.3217475 L16.3684431,22.6737763 C15.7618468,23.1737823 14.8821327,23.1599802 14.2915205,22.6411908 L9.14729103,18.1224954 C8.10799707,17.2367206 7.50983591,15.9394353 7.51107156,14.5738851 C7.51107156,12.674383 8.66218259,10.9643494 10.4220794,10.2495967 Z" id="路径" fill-opacity="0.363875679" fill="#FFFFFF" transform="translate(15.523898, 16.473078) rotate(32.000000) translate(-15.523898, -16.473078) "></path>
            </g>
            <g id="分组-copy" transform="translate(165.933092, 83.456034) rotate(20.000000) translate(-165.933092, -83.456034) translate(145.433092, 63.956034)">
                <path d="M10.6031507,7.12521052 C13.9806314,5.76187859 17.8659693,6.60215054 20.4282921,9.2500683 C22.9610849,6.63087329 26.8372462,5.83435535 30.2302278,7.23585448 C33.6232094,8.63735361 35.8560408,11.9572416 35.8768468,15.6311006 C35.8995608,18.4905809 34.5669246,21.1748453 32.2879524,22.8594461 L22.1759394,31.219509 C21.0145493,32.1800015 19.3222347,32.1437674 18.1805433,31.1339636 L8.23641542,22.3384954 C6.22768739,20.6140335 5.06303349,18.0984457 5.05046169,15.4573251 C5.02992453,11.7834651 7.22567012,8.48854244 10.6031507,7.12521052 Z" id="路径" fill="#F70000" transform="translate(20.463654, 19.198336) rotate(32.000000) translate(-20.463654, -19.198336) "></path>
                <path d="M12.8910899,12.880961 C15.0803341,11.9972649 17.5987655,12.5419196 19.2596337,14.2582694 C20.9013609,12.5605373 23.4138441,12.0442435 25.6131358,12.9526792 C27.8124275,13.8611148 29.2597232,16.0130281 29.2732094,18.3943813 C29.2879324,20.2478635 28.4241329,21.9877729 26.9469293,23.0797118 L20.3924386,28.4986086 C19.6396389,29.1211888 18.5427,29.0977022 17.8026688,28.443159 L11.3569993,22.7420376 C10.0549648,21.6242612 9.30004953,19.9936861 9.29190064,18.281742 C9.27858869,15.9003882 10.7018458,13.7646571 12.8910899,12.880961 Z" id="路径" fill-opacity="0.363875679" fill="#FFFFFF" transform="translate(19.282555, 20.706622) rotate(32.000000) translate(-19.282555, -20.706622) "></path>
            </g>
            <g id="分组-copy-2" transform="translate(205.900123, 111.072472) rotate(52.000000) translate(-205.900123, -111.072472) translate(181.900123, 88.072472)">
                <path d="M12.7849291,8.43067551 C16.8161807,6.7929264 21.436671,7.76040633 24.4691045,10.8772135 C27.5033837,7.75861116 32.1244475,6.7883966 36.1547303,8.42376026 C40.185013,10.0591239 42.8203894,13.9737767 42.8190262,18.3230322 C42.8263054,21.7081453 41.2206333,24.8953494 38.495153,26.9057232 L26.3957211,36.874064 C25.0060687,38.0193298 22.991231,37.9883236 21.6388783,36.8008612 L9.859891,26.4579727 C7.48015174,24.4305345 6.11103675,21.4605695 6.11478895,18.3338931 C6.11598331,13.9846377 8.75367757,10.0684246 12.7849291,8.43067551 Z" id="路径" fill="#F70000" transform="translate(24.466908, 22.675935) rotate(32.000000) translate(-24.466908, -22.675935) "></path>
                <path d="M15.4795862,15.2101579 C18.0925971,14.1485878 21.0875459,14.7756971 23.0531345,16.7959758 C25.0199193,14.7745335 28.0152398,14.1456516 30.6276228,15.2056755 C33.2400058,16.2656995 34.9482265,18.8031325 34.9473429,21.6222699 C34.9520612,23.8164613 33.911283,25.8823704 32.144658,27.1854716 L24.3019452,33.6468357 C23.4011885,34.3891838 22.0951938,34.3690859 21.2186143,33.5993865 L13.58361,26.8952449 C12.0410904,25.5810828 11.1536458,23.6559856 11.1560779,21.6293098 C11.1568521,18.8101724 12.8665752,16.2717281 15.4795862,15.2101579 Z" id="路径" fill-opacity="0.363875679" fill="#FFFFFF" transform="translate(23.051710, 24.443772) rotate(32.000000) translate(-23.051710, -24.443772) "></path>
            </g>
            <g id="分组-copy-3" transform="translate(203.460349, 42.442640) rotate(33.000000) translate(-203.460349, -42.442640) translate(175.460349, 15.942640)">
                <path d="M14.8013131,9.87702565 C19.4983999,7.9764785 24.8944458,9.12971714 28.4466932,12.7933055 C31.9739206,9.15405316 37.3621913,8.03788611 42.0724117,9.97077132 C46.7826321,11.9036565 49.8750151,16.4999431 49.8925651,21.5937411 C49.9156247,25.5583832 48.0557933,29.2842069 44.8840856,31.6268588 L30.8082302,43.2489499 C29.1915819,44.5842176 26.8402543,44.5391228 25.2569665,43.1424854 L11.4665348,30.9776665 C8.68068912,28.5927807 7.07007265,25.1084211 7.06075909,21.4465058 C7.04326516,16.352707 10.1042263,11.7775728 14.8013131,9.87702565 Z" id="路径" fill="#F70000" transform="translate(28.476662, 26.596893) rotate(32.000000) translate(-28.476662, -26.596893) "></path>
                <path d="M17.9677113,17.8425335 C21.012309,16.6106206 24.509964,17.3581367 26.8124899,19.7328325 C29.0987983,17.373911 32.5914135,16.6504243 35.6445242,17.9032983 C38.6976349,19.1561723 40.7020821,22.1354325 40.7134578,25.4371738 C40.7284048,28.0070093 39.5228834,30.4220455 37.4670189,31.9405255 L28.3432111,39.4738315 C27.2953182,40.3393366 25.7712147,40.3101067 24.7449458,39.4048224 L15.8061463,31.5197265 C14.0003931,29.9738709 12.95641,27.7153491 12.9503731,25.3417376 C12.9390337,22.0399957 14.9231136,19.0744463 17.9677113,17.8425335 Z" id="路径" fill-opacity="0.363875679" fill="#FFFFFF" transform="translate(26.831915, 28.680159) rotate(32.000000) translate(-26.831915, -28.680159) "></path>
            </g>
            <g id="分组-10" transform="translate(105.908655, 117.729589) rotate(-346.000000) translate(-105.908655, -117.729589) translate(97.408655, 106.729589)">
                <path d="M1.28921725,14.7529655 C-0.27907857,12.3456195 1.60128577,8.04085621 3.16351249,4.09751252 C4.7257392,0.344036941 8.03056237,0.484993997 9.90950725,1.56013266 C11.7884521,2.57270206 14.8868708,6.35623361 15.5462843,6.96832129 C16.2056977,7.56390765 17.9456402,18.3946499 14.053285,20.5032697 C9.03267276,23.9343498 2.85751306,17.0348533 1.28921725,14.7529655 Z" id="路径-2-copy" fill="#FFD53A"></path>
                <path d="M3.49594389,13.6412876 C3.07132115,12.4660716 4.32154001,7.51376415 5.20313869,5.90417467 C6.08473737,4.34247716 7.6916933,3.21893655 9.42420672,3.43811123 C11.1567201,3.64575854 13.6957504,7.96172622 13.9811827,8.6184111 C14.2666149,9.26715186 15.6236056,17.1558313 12.9103007,18.8403288 C10.1969958,20.6375381 3.92056663,14.7989224 3.49594389,13.6412876 Z" id="路径-3" fill="#2F0600"></path>
                <g id="路径" opacity="0.716889881">
                    <use fill="#EF2E0E" fill-rule="evenodd" xlink:href="#path-21"></use>
                    <use fill="black" fill-opacity="1" filter="url(#filter-22)" xlink:href="#path-21"></use>
                </g>
            </g>
        </g>
    </g>
</svg>